<?xml version="1.0" encoding="UTF-8"?>
<svg version="1.1" xmlns="http://www.w3.org/2000/svg" width="800" height="1056">
    <g transform="translate(400,528) scale(0.35) translate(-400,-528)">
        <path d="M0 0 C15.88982121 13.48162098 23.20354894 30.68084396 26 51 C26.38712632 56.17616859 26.43047092 61.31123781 26.375 66.5 C26.36802094 67.53864197 26.36802094 67.53864197 26.36090088 68.5982666 C26.26212724 81.24346343 25.26700838 93.55145076 23 106 C22.82259277 107.00192383 22.64518555 108.00384766 22.46240234 109.03613281 C16.57116659 141.36547575 6.28079023 173.1895224 -5 204 C-5.47978877 205.32205431 -5.95943961 206.64415868 -6.43896484 207.96630859 C-14.51950007 230.16855681 -23.84121042 251.67375693 -34 273 C-34.72896484 274.53479004 -34.72896484 274.53479004 -35.47265625 276.10058594 C-41.58030103 288.86738672 -48.48605256 301.15133625 -55.52929688 313.42138672 C-56.79318988 315.63739567 -58.03737662 317.86177266 -59.265625 320.09765625 C-75.64845656 349.9075738 -94.71628731 378.54350713 -114.63134766 406.10302734 C-116.11017135 408.15269914 -117.57687753 410.21073543 -119.04296875 412.26953125 C-127.44823786 424.03561687 -136.17451356 435.54684659 -145 447 C-145.63679687 447.82661133 -146.27359375 448.65322266 -146.9296875 449.50488281 C-153.07932067 457.47580257 -159.25551981 465.41674433 -165.671875 473.17578125 C-167.46544853 475.35154243 -169.24510252 477.53605717 -171.015625 479.73046875 C-176.82759823 486.93027179 -182.70496701 494.05525718 -188.7565918 501.05517578 C-191.77514881 504.55150805 -194.72294213 508.09302131 -197.625 511.6875 C-201.42154217 516.36807455 -205.43665272 520.80334404 -209.51953125 525.234375 C-212.00464232 528.00517601 -214.35444333 530.85051362 -216.6875 533.75 C-219.72693601 537.51590929 -222.86594416 540.98454161 -226.33984375 544.34765625 C-228.04384226 546.04363594 -229.61714083 547.80489696 -231.1875 549.625 C-235.80537021 554.97472018 -240.6321358 560.13108926 -245.43701172 565.31201172 C-247.39752988 567.42932233 -249.35023745 569.55374215 -251.30297852 571.67822266 C-253.32980679 573.87979519 -255.36381096 576.0746782 -257.3984375 578.26904297 C-258.4580982 579.4143165 -259.51543074 580.56174898 -260.5703125 581.71142578 C-270.59627488 592.63040112 -281.02862355 603.13579905 -291.5 613.625 C-292.20394897 614.33153717 -292.90789795 615.03807434 -293.63317871 615.76602173 C-295.67957896 617.81835037 -297.72975176 619.866831 -299.78125 621.9140625 C-300.38918396 622.52397537 -300.99711792 623.13388824 -301.62347412 623.76228333 C-305.36690576 627.48596788 -309.23157081 631.02006079 -313.23027039 634.46838379 C-315.63866177 636.55273117 -317.97305572 638.71383374 -320.3125 640.875 C-324.80148057 644.96880209 -329.41243476 648.85469667 -334.140625 652.66796875 C-336.63819776 654.70492358 -339.09253079 656.78357627 -341.53564453 658.88525391 C-349.12589234 665.40283997 -357.03240822 671.46015311 -365.01318359 677.48925781 C-366.77693942 678.83038844 -368.52705275 680.18610115 -370.26953125 681.5546875 C-421.02167499 721.29641752 -494.61103952 773.56009685 -562.92578125 765.5390625 C-578.94443307 762.50995148 -591.10985984 754.12710791 -600.875 741.25 C-610.98049558 725.64810072 -613.60096333 707.81916846 -613.4375 689.625 C-613.43412628 688.88877411 -613.43075256 688.15254822 -613.42727661 687.39401245 C-613.33679276 673.64657288 -611.9846116 660.44369128 -609 647 C-608.65388672 645.43137207 -608.65388672 645.43137207 -608.30078125 643.83105469 C-594.69640173 584.03296851 -565.81758059 528.44386433 -538.47719383 473.99555397 C-537.29958018 471.65001578 -536.12264361 469.30413895 -534.94587708 466.95817566 C-534.14843535 465.36866863 -533.35096511 463.7791759 -532.5534668 462.18969727 C-532.15550935 461.39652823 -531.7575519 460.6033592 -531.34753513 459.78615475 C-529.38013728 455.86661224 -527.40976984 451.94861391 -525.43276978 448.03390503 C-469.47277693 339.77326347 -469.47277693 339.77326347 -467 221 C-467.29003906 219.86570557 -467.29003906 219.86570557 -467.5859375 218.70849609 C-472.97459931 198.67148894 -484.01455982 182.66188734 -502.15063477 172.00854492 C-520.3974285 161.92290122 -541.91007147 160.05671441 -561.8984375 165.671875 C-586.88529657 173.42436111 -608.29375804 190.30978761 -624 211 C-624.4316748 211.56203125 -624.86334961 212.1240625 -625.30810547 212.703125 C-653.56970383 249.62278491 -671.28900533 293.31235656 -679 339 C-679.26683594 340.56379395 -679.26683594 340.56379395 -679.5390625 342.15917969 C-688.2950865 396.45000311 -681.43799044 457.37254236 -662.68969727 508.84985352 C-662.07746651 510.54971126 -661.53133939 512.27314699 -661 514 C-661.33 514.66 -661.66 515.32 -662 516 C-666.12771291 508.05514807 -669.75735367 500.05559692 -672.9375 491.6875 C-673.36643555 490.56013428 -673.79537109 489.43276855 -674.23730469 488.27124023 C-687.46486925 452.99361246 -696.03892538 414.97433465 -696.203125 377.18359375 C-696.21013931 376.09678314 -696.21715363 375.00997253 -696.22438049 373.89022827 C-696.24177472 370.40594282 -696.2482319 366.92182727 -696.25 363.4375 C-696.25067474 362.24748383 -696.25134949 361.05746765 -696.25204468 359.83139038 C-696.23658471 342.69379829 -695.9085554 325.92921121 -693 309 C-692.82839355 307.95102539 -692.65678711 306.90205078 -692.47998047 305.82128906 C-683.41705452 251.37894035 -662.3550838 198.19686891 -629 154 C-628.39792725 153.19393311 -628.39792725 153.19393311 -627.78369141 152.37158203 C-612.56188518 132.01354653 -595.40041679 112.46819211 -576 96 C-575.09121094 95.20207031 -574.18242188 94.40414062 -573.24609375 93.58203125 C-555.16162675 77.81362984 -534.95067693 64.48055811 -513.89257812 53.03662109 C-512.11046302 52.06050387 -510.34369691 51.05651228 -508.578125 50.05078125 C-476.76951681 32.31136514 -441.02861698 21.57301637 -405.3125 15.25 C-404.1982666 15.05116211 -403.0840332 14.85232422 -401.93603516 14.64746094 C-383.66755108 11.57504605 -365.44100984 10.61693641 -346.9375 10.6875 C-345.39920532 10.69073273 -345.39920532 10.69073273 -343.82983398 10.69403076 C-327.38228235 10.7492646 -311.26485872 11.35029453 -295 14 C-293.77539062 14.19867676 -292.55078125 14.39735352 -291.2890625 14.60205078 C-252.04073749 21.19114961 -215.43033876 33.9783398 -180 52 C-179.12601563 51.40574219 -178.25203125 50.81148437 -177.3515625 50.19921875 C-162.4272133 40.11369581 -147.09623115 30.80863562 -131.2578125 22.22949219 C-129.02744658 21.01494604 -126.81055223 19.77815275 -124.59375 18.5390625 C-105.23078144 7.86541567 -84.43979816 -0.55481946 -63 -6 C-62.33597168 -6.17499023 -61.67194336 -6.34998047 -60.98779297 -6.53027344 C-41.27825457 -11.56865202 -17.18187623 -12.06910047 0 0 Z M-157 66 C-153.21952288 69.09937902 -149.31069633 71.99248794 -145.36303711 74.87231445 C-134.5603792 82.75355884 -124.20721354 90.87935222 -114.3203125 99.8984375 C-112.30602269 101.72282794 -110.25851386 103.49093802 -108.1875 105.25 C-99.50493479 112.82077332 -91.41196067 121.19016956 -84 130 C-83.2059375 130.90492188 -82.411875 131.80984375 -81.59375 132.7421875 C-72.89208523 142.72177484 -64.8433214 153.3505543 -57.74609375 164.53515625 C-57.16988281 165.34855469 -56.59367188 166.16195312 -56 167 C-55.34 167 -54.68 167 -54 167 C-43.07116364 145.32711438 -34.54867059 122.64484906 -29 99 C-28.82355957 98.26700684 -28.64711914 97.53401367 -28.46533203 96.77880859 C-24.2048944 78.525219 -22.86441721 57.671445 -32.6875 41.0625 C-38.24634682 33.43133749 -46.81886488 29.04504119 -55.98046875 27.49609375 C-90.58407735 23.71319062 -130.69020179 45.25350714 -157 66 Z " fill="#1164B6" transform="translate(735,9)"/>
        <path d="M0 0 C1.83302005 3.19210515 2.41010453 5.9133064 2.81640625 9.55859375 C2.94039795 10.65582764 3.06438965 11.75306152 3.19213867 12.88354492 C3.31435791 14.0563501 3.43657715 15.22915527 3.5625 16.4375 C3.69180908 17.65091064 3.82111816 18.86432129 3.9543457 20.11450195 C5.04603621 30.73875293 5.76300791 41.32350625 6 52 C6.03287109 53.37623535 6.03287109 53.37623535 6.06640625 54.78027344 C7.67769044 133.65263452 -15.77859103 211.58511232 -63 275 C-63.39364746 275.53254395 -63.78729492 276.06508789 -64.19287109 276.61376953 C-74.41479352 290.38932552 -85.71504651 303.04023646 -98 315 C-100.44974794 317.43476477 -102.88400795 319.88044506 -105.2890625 322.359375 C-110.67289757 327.86925303 -116.24689977 332.90499114 -122.30371094 337.66308594 C-124.2456433 339.19360143 -126.17279935 340.74198771 -128.1015625 342.2890625 C-138.02023903 350.18656243 -148.18320727 357.38820087 -159 364 C-159.68916504 364.4223291 -160.37833008 364.8446582 -161.08837891 365.27978516 C-166.0091017 368.27595859 -170.98502047 371.16480765 -176 374 C-176.7022168 374.40041504 -177.40443359 374.80083008 -178.12792969 375.21337891 C-226.59930135 402.60400609 -280.88087914 414.26102339 -336 417 C-336 416.34 -336 415.68 -336 415 C-334.84886719 414.41734375 -333.69773437 413.8346875 -332.51171875 413.234375 C-290.50977131 391.71411582 -252.94352751 361.5505174 -218.55761719 329.44433594 C-217.06233924 328.05780548 -215.55101072 326.68864559 -214.0390625 325.3203125 C-206.86814095 318.82995375 -199.97370699 312.07914264 -193.125 305.25 C-191.78695312 303.91884155 -191.78695312 303.91884155 -190.421875 302.56079102 C-185.99593029 298.12446261 -181.71333526 293.63100509 -177.63134766 288.87646484 C-174.89111547 285.72450068 -171.99750787 282.7184049 -169.125 279.6875 C-164.30741768 274.5649753 -159.71232895 269.35089469 -155.32421875 263.8515625 C-153.07783593 261.09549619 -150.75930905 258.42516708 -148.40869141 255.75854492 C-141.44133563 247.8466889 -135.01307909 239.61807463 -128.67236328 231.20019531 C-126.40205937 228.21333709 -124.0848998 225.26445194 -121.76733398 222.31420898 C-114.24329766 212.72805246 -107.05263568 202.93665237 -100 193 C-99.1970752 191.87682373 -99.1970752 191.87682373 -98.37792969 190.73095703 C-58.81578423 135.35576299 -16.95071106 72.72649694 -1.83984375 5.62109375 C-1 2 -1 2 0 0 Z " fill="#1164B6" transform="translate(733,307)"/>
        <path d="M0 0 C41 0 41 0 50.625 7.5 C53.4765625 11.71875 53.4765625 11.71875 54.69824219 13.86328125 C56.99379723 17.63122907 60.01810598 20.76741954 63 24 C63.48678223 24.53560547 63.97356445 25.07121094 64.47509766 25.62304688 C65.81011457 27.08808863 67.15494152 28.54417199 68.5 30 C71.52004872 33.2778141 74.52204137 36.56583268 77.4375 39.9375 C80.54964124 43.52958591 83.76872086 47.01551992 87 50.5 C90.78881936 54.58570879 94.52171864 58.70393273 98.16796875 62.91796875 C100.53250146 65.60516691 102.95225631 68.24043172 105.375 70.875 C108.94719282 74.76209687 112.51669473 78.65126553 116.0625 82.5625 C116.77535156 83.34753906 117.48820312 84.13257813 118.22265625 84.94140625 C120 87 120 87 122 90 C122.33 60.3 122.66 30.6 123 0 C134.88 0 146.76 0 159 0 C159 46.86 159 93.72 159 142 C146.46 142 133.92 142 121 142 C109.24471831 130.24471831 109.24471831 130.24471831 105.06640625 125.3515625 C102.15787838 122.04166878 99.13916839 118.83858003 96.125 115.625 C91.44918346 110.63656509 86.82288887 105.61300903 82.265625 100.515625 C79.0699394 96.96731202 75.82624735 93.46422274 72.58374023 89.95874023 C67.82747852 84.81661162 63.09332215 79.65452188 58.36328125 74.48828125 C56.9826018 72.98100655 55.60084325 71.47472835 54.21875 69.96875 C53.75283447 69.46093994 53.28691895 68.95312988 52.80688477 68.42993164 C51.53672471 67.0456406 50.26641554 65.66148637 48.99609375 64.27734375 C44.65388056 59.52751733 40.32898609 54.76188469 36 50 C35.67 80.36 35.34 110.72 35 142 C23.45 142 11.9 142 0 142 C0 95.14 0 48.28 0 0 Z " fill="#1265B6" transform="translate(225,912)"/>
        <path d="M0 0 C17.221875 -0.061875 34.44375 -0.12375 52.1875 -0.1875 C57.60309326 -0.21481201 63.01868652 -0.24212402 68.59838867 -0.27026367 C75.26818848 -0.28381348 75.26818848 -0.28381348 78.40156555 -0.28633118 C80.56601314 -0.29090451 82.73045363 -0.30138557 84.89485168 -0.31672668 C105.47325436 -0.4551533 123.20668044 0.67426136 138.875 15.71484375 C141.86085138 18.92573172 144.13933929 22.02907776 146 26 C146.31710937 26.66644531 146.63421875 27.33289063 146.9609375 28.01953125 C151.18314622 39.07861923 150.69037566 54.56676465 146.328125 65.45703125 C140.26058564 77.07458456 130.94891608 84.09400007 119 89 C109.0368503 91.93242812 99.27411267 92.40978879 88.9765625 92.29296875 C87.49441971 92.28735474 86.01227126 92.28309321 84.53012085 92.28010559 C80.67993053 92.26879849 76.83009444 92.23945839 72.9800415 92.20599365 C68.33340777 92.1695046 63.6866538 92.15606407 59.03991699 92.13863373 C52.02636701 92.1098082 45.01359006 92.05222475 38 92 C38 108.5 38 125 38 142 C25.46 142 12.92 142 0 142 C0 95.14 0 48.28 0 0 Z M38 26 C38 39.2 38 52.4 38 66 C44.74049163 66.04618533 51.48042285 66.08592846 58.22094727 66.10986328 C60.50872672 66.11985288 62.79649364 66.13344917 65.08422852 66.15087891 C87.75493009 67.67012096 87.75493009 67.67012096 107.6484375 59.390625 C112.15615595 54.43848361 113.32885662 50.90137363 113.21484375 44.0859375 C112.72801597 39.35928236 110.72014059 35.90531959 107.8125 32.25 C99.02905179 25.22324144 87.77101535 25.85089525 77.0625 25.90234375 C75.94182129 25.9037587 74.82114258 25.90517365 73.66650391 25.90663147 C70.11097467 25.91219861 66.55550998 25.92474502 63 25.9375 C60.579428 25.94251925 58.158855 25.94708141 55.73828125 25.95117188 C49.82547637 25.96130348 43.91280986 25.98088531 38 26 Z " fill="#1265B6" transform="translate(464,912)"/>
        <path d="M0 0 C5.46243138 -0.19809361 10.92276519 -0.34307407 16.38793945 -0.43945312 C18.2457318 -0.47963212 20.10327196 -0.53418925 21.96020508 -0.60351562 C24.6342581 -0.70083198 27.30496552 -0.7459756 29.98046875 -0.78125 C31.2213752 -0.84318542 31.2213752 -0.84318542 32.48735046 -0.90637207 C34.90348723 -0.90824276 36.70142854 -0.74387725 39 0 C40.34063053 1.52977848 40.34063053 1.52977848 41.4780426 3.50758362 C41.89934354 4.23413462 42.32064447 4.96068562 42.7547121 5.70925331 C44.74352828 9.36774393 46.65368859 13.05392985 48.49902344 16.78686523 C48.91755081 17.62523422 49.33607819 18.46360321 49.76728821 19.32737732 C51.13502482 22.06928621 52.49715365 24.81394126 53.859375 27.55859375 C54.81349468 29.47310943 55.76802993 31.38741805 56.72296143 33.30152893 C59.22479352 38.31844239 61.72214736 43.33757023 64.21820068 48.35736084 C68.22628726 56.41681372 72.23988874 64.47351633 76.25598907 72.52897835 C77.65887087 75.34499049 79.05902865 78.1623451 80.45892334 80.97984314 C81.31204322 82.69290603 82.16524889 84.4059262 83.01855469 86.11889648 C83.40918594 86.90689636 83.7998172 87.69489624 84.20228577 88.5067749 C85.76217786 91.98171186 85.76217786 91.98171186 88 95 C95.5227611 79.53569544 102.95076856 64.03876987 110.1550293 48.4230957 C114.5364558 38.946396 119.04024156 29.53406943 123.59985352 20.14208984 C124.35480103 18.58482178 124.35480103 18.58482178 125.125 16.99609375 C125.56070313 16.10075928 125.99640625 15.2054248 126.4453125 14.28295898 C128.68732781 9.54860285 130.83233758 4.76885733 133 0 C146.2 0 159.4 0 173 0 C165.5243003 17.02798265 157.3809351 33.70284769 149.21569824 50.40678406 C144.84907063 59.34533895 140.56568513 68.3230268 136.28759766 77.30419922 C134.94097964 80.12356899 133.58678327 82.93918902 132.23046875 85.75390625 C127.69826253 95.162595 123.18815517 104.57991239 118.75390625 114.03515625 C118.39099991 114.80859879 118.02809357 115.58204132 117.65419006 116.37892151 C115.85092941 120.22336835 114.05081958 124.06924882 112.25512695 127.91723633 C111.59463356 129.32766939 110.93407359 130.73807127 110.2734375 132.1484375 C109.97188248 132.79728409 109.67032745 133.44613068 109.3596344 134.11463928 C108.05135036 136.90256839 106.71326471 139.43010294 105 142 C102.30459685 142.26686213 99.84152536 142.34818073 97.1484375 142.29296875 C96.37440582 142.28872391 95.60037415 142.28447906 94.80288696 142.28010559 C92.32657323 142.26328998 89.85106842 142.22563395 87.375 142.1875 C85.69792841 142.17245682 84.02084408 142.15876778 82.34375 142.14648438 C78.22884367 142.11592814 74.11458273 142.05905481 70 142 C69.32334038 140.64606895 69.32334038 140.64606895 68.63301086 139.26478577 C64.25213812 130.5003994 59.86654481 121.73838586 55.4784441 112.97761631 C51.36327756 104.76153666 47.25008447 96.54447024 43.13761425 88.32704067 C40.3922074 82.84143414 37.64605229 77.35620487 34.89819336 71.87182617 C32.20927479 66.50500147 29.52241804 61.13714886 26.83687782 55.76863289 C25.82794325 53.7525798 24.81831775 51.73687229 23.80791283 49.72155571 C18.44716471 39.02806228 13.15015512 28.30773021 7.98168945 17.51977539 C7.52569713 16.56893538 7.0697048 15.61809538 6.59989452 14.63844204 C4.29217237 9.79949789 2.06831971 4.94616201 0 0 Z " fill="#1265B6" transform="translate(3,912)"/>
        <path d="M0 0 C49.5 0 99 0 150 0 C150 10.56 150 21.12 150 32 C131.19 32 112.38 32 93 32 C93 68.3 93 104.6 93 142 C80.46 142 67.92 142 55 142 C55 105.7 55 69.4 55 32 C36.85 32 18.7 32 0 32 C0 21.44 0 10.88 0 0 Z " fill="#1265B6" transform="translate(646,912)"/>
        <path d="M0 0 C41 0 41 0 50.625 7.5 C53.4765625 11.71875 53.4765625 11.71875 54.69824219 13.86328125 C56.99379723 17.63122907 60.01810598 20.76741954 63 24 C63.48678223 24.53560547 63.97356445 25.07121094 64.47509766 25.62304688 C65.81011457 27.08808863 67.15494152 28.54417199 68.5 30 C71.52004872 33.2778141 74.52204137 36.56583268 77.4375 39.9375 C80.54964124 43.52958591 83.76872086 47.01551992 87 50.5 C90.78881936 54.58570879 94.52171864 58.70393273 98.16796875 62.91796875 C100.53250146 65.60516691 102.95225631 68.24043172 105.375 70.875 C108.94719282 74.76209687 112.51669473 78.65126553 116.0625 82.5625 C116.77535156 83.34753906 117.48820312 84.13257813 118.22265625 84.94140625 C120 87 120 87 122 90 C122.33 60.3 122.66 30.6 123 0 C134.88 0 146.76 0 159 0 C159 46.86 159 93.72 159 142 C146.46 142 133.92 142 121 142 C109.24471831 130.24471831 109.24471831 130.24471831 105.06640625 125.3515625 C102.15787838 122.04166878 99.13916839 118.83858003 96.125 115.625 C91.44918346 110.63656509 86.82288887 105.61300903 82.265625 100.515625 C79.0699394 96.96731202 75.82624735 93.46422274 72.58374023 89.95874023 C67.82747852 84.81661162 63.09332215 79.65452188 58.36328125 74.48828125 C56.9826018 72.98100655 55.60084325 71.47472835 54.21875 69.96875 C53.75283447 69.46093994 53.28691895 68.95312988 52.80688477 68.42993164 C51.53672471 67.0456406 50.26641554 65.66148637 48.99609375 64.27734375 C44.65388056 59.52751733 40.32898609 54.76188469 36 50 C35.67 80.36 35.34 110.72 35 142 C23.45 142 11.9 142 0 142 C0 95.14 0 48.28 0 0 Z M2 2 C2 47.54 2 93.08 2 140 C12.23 140 22.46 140 33 140 C33 108.32 33 76.64 33 44 C36.34861948 46.67889559 38.71109393 48.61501484 41.3515625 51.7578125 C44.90818591 55.91458005 48.61590139 59.90156895 52.375 63.875 C57.23619178 69.03596428 62.04746458 74.23046221 66.76953125 79.51953125 C69.44558912 82.49553256 72.15736736 85.4369955 74.875 88.375 C80.14654064 94.07400799 85.39864397 99.79036268 90.64111328 105.51611328 C92.46787183 107.51090999 94.29564884 109.50477188 96.12353516 111.49853516 C97.03869203 112.49679957 97.95373174 113.49517139 98.86865234 114.49365234 C101.19549673 117.03285758 103.52400256 119.57050603 105.85546875 122.10546875 C106.32984375 122.62173828 106.80421875 123.13800781 107.29296875 123.66992188 C108.59457516 125.08637591 109.89687053 126.50219674 111.19921875 127.91796875 C114.83222612 131.91579694 118.41112076 135.96251086 122 140 C133.22 140 144.44 140 156 140 C156 94.46 156 48.92 156 2 C145.77 2 135.54 2 125 2 C125 32.69 125 63.38 125 95 C116.03208066 87.15307058 116.03208066 87.15307058 112.6875 83.3125 C109.29146285 79.45896561 105.85701033 75.6504949 102.375 71.875 C98.81440629 68.00415466 95.31292907 64.09050673 91.8671875 60.1171875 C89.02205329 56.89111482 86.10367121 53.7326456 83.19189453 50.56689453 C78.75776372 45.74415109 74.3748176 40.8765888 70 36 C68.50028872 34.33307353 67.00028679 32.66640851 65.5 31 C63.27170886 28.52497766 61.0442116 26.04928246 58.8203125 23.5703125 C55.57345347 19.95370439 52.32243811 16.34260578 49.0234375 12.7734375 C48.52118652 12.22929199 48.01893555 11.68514648 47.50146484 11.12451172 C46.51682048 10.05917455 45.53023091 8.99563124 44.54150391 7.93408203 C41.11047397 4.22094794 41.11047397 4.22094794 40 2 C27.46 2 14.92 2 2 2 Z " fill="#1C81C7" transform="translate(225,912)"/>
        <path d="M0 0 C49.5 0 99 0 150 0 C150 10.56 150 21.12 150 32 C131.19 32 112.38 32 93 32 C93 68.3 93 104.6 93 142 C80.46 142 67.92 142 55 142 C55 105.7 55 69.4 55 32 C36.85 32 18.7 32 0 32 C0 21.44 0 10.88 0 0 Z M3 2 C3 11.24 3 20.48 3 30 C21.15 30 39.3 30 58 30 C58 66.3 58 102.6 58 140 C68.89 140 79.78 140 91 140 C91 103.7 91 67.4 91 30 C109.81 30 128.62 30 148 30 C148 20.76 148 11.52 148 2 C100.15 2 52.3 2 3 2 Z " fill="#1D80C7" transform="translate(646,912)"/>
        <path d="M0 0 C17.221875 -0.061875 34.44375 -0.12375 52.1875 -0.1875 C57.60309326 -0.21481201 63.01868652 -0.24212402 68.59838867 -0.27026367 C75.26818848 -0.28381348 75.26818848 -0.28381348 78.40156555 -0.28633118 C80.56601314 -0.29090451 82.73045363 -0.30138557 84.89485168 -0.31672668 C105.47325436 -0.4551533 123.20668044 0.67426136 138.875 15.71484375 C141.86085138 18.92573172 144.13933929 22.02907776 146 26 C146.31710937 26.66644531 146.63421875 27.33289063 146.9609375 28.01953125 C151.18314622 39.07861923 150.69037566 54.56676465 146.328125 65.45703125 C140.26058564 77.07458456 130.94891608 84.09400007 119 89 C109.0368503 91.93242812 99.27411267 92.40978879 88.9765625 92.29296875 C87.49441971 92.28735474 86.01227126 92.28309321 84.53012085 92.28010559 C80.67993053 92.26879849 76.83009444 92.23945839 72.9800415 92.20599365 C68.33340777 92.1695046 63.6866538 92.15606407 59.03991699 92.13863373 C52.02636701 92.1098082 45.01359006 92.05222475 38 92 C38 108.5 38 125 38 142 C25.46 142 12.92 142 0 142 C0 95.14 0 48.28 0 0 Z M3 2 C3 47.54 3 93.08 3 140 C13.89 140 24.78 140 36 140 C36 123.5 36 107 36 90 C40.67414063 90.03480469 45.34828125 90.06960938 50.1640625 90.10546875 C53.15365859 90.12082626 56.14320495 90.13527008 59.1328125 90.14648438 C63.86143293 90.16430698 68.58987648 90.18521829 73.31835938 90.22631836 C77.13743379 90.25930001 80.95631811 90.27693322 84.77552414 90.28463173 C86.22093059 90.29010659 87.66632855 90.30079377 89.11165237 90.31719017 C105.9585997 90.50042799 123.76617359 87.85396144 136.546875 75.71875 C139.59198198 72.11701056 141.87297731 68.19603568 144 64 C144.34289062 63.33613281 144.68578125 62.67226563 145.0390625 61.98828125 C148.8491021 52.92608426 148.47637964 40.13782705 145.375 30.9375 C139.68480605 17.99082178 131.4366964 11.39008593 118.89453125 5.26171875 C106.17443579 0.5561286 91.50852551 1.73629703 78.1953125 1.8046875 C76.26359167 1.80763514 74.33186924 1.80967113 72.40014648 1.81079102 C65.30840632 1.82119482 58.21670056 1.84911705 51.125 1.875 C27.303125 1.936875 27.303125 1.936875 3 2 Z " fill="#1C7FC6" transform="translate(464,912)"/>
        <path d="M0 0 C5.46243138 -0.19809361 10.92276519 -0.34307407 16.38793945 -0.43945312 C18.2457318 -0.47963212 20.10327196 -0.53418925 21.96020508 -0.60351562 C24.6342581 -0.70083198 27.30496552 -0.7459756 29.98046875 -0.78125 C31.2213752 -0.84318542 31.2213752 -0.84318542 32.48735046 -0.90637207 C34.90348723 -0.90824276 36.70142854 -0.74387725 39 0 C40.34063053 1.52977848 40.34063053 1.52977848 41.4780426 3.50758362 C41.89934354 4.23413462 42.32064447 4.96068562 42.7547121 5.70925331 C44.74352828 9.36774393 46.65368859 13.05392985 48.49902344 16.78686523 C48.91755081 17.62523422 49.33607819 18.46360321 49.76728821 19.32737732 C51.13502482 22.06928621 52.49715365 24.81394126 53.859375 27.55859375 C54.81349468 29.47310943 55.76802993 31.38741805 56.72296143 33.30152893 C59.22479352 38.31844239 61.72214736 43.33757023 64.21820068 48.35736084 C68.22628726 56.41681372 72.23988874 64.47351633 76.25598907 72.52897835 C77.65887087 75.34499049 79.05902865 78.1623451 80.45892334 80.97984314 C81.31204322 82.69290603 82.16524889 84.4059262 83.01855469 86.11889648 C83.40918594 86.90689636 83.7998172 87.69489624 84.20228577 88.5067749 C85.76217786 91.98171186 85.76217786 91.98171186 88 95 C95.5227611 79.53569544 102.95076856 64.03876987 110.1550293 48.4230957 C114.5364558 38.946396 119.04024156 29.53406943 123.59985352 20.14208984 C124.35480103 18.58482178 124.35480103 18.58482178 125.125 16.99609375 C125.56070313 16.10075928 125.99640625 15.2054248 126.4453125 14.28295898 C128.68732781 9.54860285 130.83233758 4.76885733 133 0 C146.2 0 159.4 0 173 0 C165.5243003 17.02798265 157.3809351 33.70284769 149.21569824 50.40678406 C144.84907063 59.34533895 140.56568513 68.3230268 136.28759766 77.30419922 C134.94097964 80.12356899 133.58678327 82.93918902 132.23046875 85.75390625 C127.69826253 95.162595 123.18815517 104.57991239 118.75390625 114.03515625 C118.39099991 114.80859879 118.02809357 115.58204132 117.65419006 116.37892151 C115.85092941 120.22336835 114.05081958 124.06924882 112.25512695 127.91723633 C111.59463356 129.32766939 110.93407359 130.73807127 110.2734375 132.1484375 C109.97188248 132.79728409 109.67032745 133.44613068 109.3596344 134.11463928 C108.05135036 136.90256839 106.71326471 139.43010294 105 142 C102.30459685 142.26686213 99.84152536 142.34818073 97.1484375 142.29296875 C96.37440582 142.28872391 95.60037415 142.28447906 94.80288696 142.28010559 C92.32657323 142.26328998 89.85106842 142.22563395 87.375 142.1875 C85.69792841 142.17245682 84.02084408 142.15876778 82.34375 142.14648438 C78.22885419 142.11337721 74.11456431 142.06157637 70 142 C69.01 140.02 68.02 138.04 67 136 C67.99 136.33 68.98 136.66 70 137 C70.33 138.32 70.66 139.64 71 141 C81.89 141 92.78 141 104 141 C104.99 138.03 104.99 138.03 106 135 C107.14313603 132.49901145 108.31078198 130.03072128 109.52734375 127.56640625 C109.87199677 126.86046829 110.21664978 126.15453033 110.57174683 125.42720032 C111.30855042 123.9189971 112.04701993 122.41160677 112.78701782 120.90496826 C114.34273347 117.73741417 115.89034571 114.56592549 117.43833923 111.39459229 C118.21272587 109.80825415 118.98751523 108.22211254 119.76271057 106.63616943 C122.81111093 100.39754064 125.82496935 94.14302262 128.8125 87.875 C129.24119385 86.97628174 129.6698877 86.07756348 130.11157227 85.15161133 C130.96890693 83.35407875 131.82608584 81.55647187 132.68310547 79.75878906 C135.07293836 74.75227967 137.47400564 69.75116389 139.875 64.75 C140.3709668 63.71681641 140.86693359 62.68363281 141.37792969 61.61914062 C145.63969895 52.74434231 149.91273618 43.87498354 154.18579102 35.00561523 C159.47899772 24.01412993 164.74136897 13.00806763 170 2 C158.12 1.67 146.24 1.34 134 1 C133.67 2.65 133.34 4.3 133 6 C132.01061065 8.2668532 130.95535521 10.50537366 129.859375 12.72265625 C129.54106216 13.37176468 129.22274933 14.02087311 128.89479065 14.68965149 C128.20908891 16.0870686 127.52089995 17.48326746 126.83047485 18.87835693 C124.98742265 22.60402411 123.16395172 26.33924899 121.33984375 30.07421875 C120.9701799 30.83027405 120.60051605 31.58632935 120.21965027 32.36529541 C116.82397057 39.32620708 113.55077812 46.33937448 110.3125 53.375 C105.37099019 64.10412098 100.30019264 74.76302115 95.13598633 85.38623047 C94.36677856 86.97201904 94.36677856 86.97201904 93.58203125 88.58984375 C93.13061768 89.51659912 92.6792041 90.44335449 92.21411133 91.39819336 C91.04606781 93.90127798 89.99877204 96.42529071 89 99 C88.34 99 87.68 99 87 99 C86.12432373 97.24079224 86.12432373 97.24079224 85.23095703 95.44604492 C83.01518316 90.99607215 80.79654807 86.54753063 78.57714844 82.09936523 C77.62620076 80.19251369 76.67597765 78.28530059 75.7265625 76.37768555 C70.48655746 65.85049322 65.17838119 55.37044437 59.67010498 44.98092651 C55.09427796 36.33010529 50.73228642 27.57484615 46.375 18.8125 C45.55357797 17.16461754 44.73196393 15.51683079 43.91015625 13.86914062 C41.93755701 9.91401962 39.96884796 5.95699836 38 2 C26.45 2 14.9 2 3 2 C7.60305692 11.12696193 7.60305692 11.12696193 12.21484375 20.24951172 C12.78332031 21.38146973 13.35179687 22.51342773 13.9375 23.6796875 C14.52402344 24.84226074 15.11054688 26.00483398 15.71484375 27.20263672 C17 30 17 30 17 32 C16.34 32 15.68 32 15 32 C13.06004991 27.98034433 11.12348019 23.959069 9.1875 19.9375 C8.64029297 18.80376953 8.09308594 17.67003906 7.52929688 16.50195312 C6.99755859 15.39658203 6.46582031 14.29121094 5.91796875 13.15234375 C5.43094482 12.14163818 4.9439209 11.13093262 4.44213867 10.08959961 C2.88530894 6.75428892 1.43366364 3.38984282 0 0 Z " fill="#1B82C8" transform="translate(3,912)"/>
        <path d="M0 0 C7.47086055 -0.04611642 14.94121948 -0.08588123 22.41210938 -0.10986328 C24.94923585 -0.11986976 27.48635095 -0.13347911 30.0234375 -0.15087891 C33.68752873 -0.17536379 37.35146638 -0.18653701 41.015625 -0.1953125 C42.69449799 -0.21079636 42.69449799 -0.21079636 44.4072876 -0.22659302 C54.70023811 -0.22803243 65.9531525 -0.22915399 74 7 C78.43313183 11.47648764 79.37209746 15.77726644 79.625 22 C79.37295442 28.20164774 78.44772508 32.55227492 74 37 C65.21847986 44.28360625 55.45394955 44.28717445 44.53125 44.1953125 C43.25519897 44.1924826 41.97914795 44.18965271 40.66442871 44.18673706 C37.29752941 44.17747997 33.93090918 44.15955962 30.56408691 44.1373291 C27.1182702 44.11674672 23.67242363 44.10759888 20.2265625 44.09765625 C13.48421962 44.07737243 6.74236022 44.03821237 0 44 C0 29.48 0 14.96 0 0 Z M2 2 C2 15.2 2 28.4 2 42 C8.74049163 42.04618533 15.48042285 42.08592846 22.22094727 42.10986328 C24.50872672 42.11985288 26.79649364 42.13344917 29.08422852 42.15087891 C51.75493009 43.67012096 51.75493009 43.67012096 71.6484375 35.390625 C76.15615595 30.43848361 77.32885662 26.90137363 77.21484375 20.0859375 C76.72801597 15.35928236 74.72014059 11.90531959 71.8125 8.25 C63.02905179 1.22324144 51.77101535 1.85089525 41.0625 1.90234375 C39.94182129 1.9037587 38.82114258 1.90517365 37.66650391 1.90663147 C34.11097467 1.91219861 30.55550998 1.92474502 27 1.9375 C24.579428 1.94251925 22.158855 1.94708141 19.73828125 1.95117188 C13.82547637 1.96130348 7.91280986 1.98088531 2 2 Z " fill="#1D81C7" transform="translate(500,936)"/>
    </g>
</svg>
